<svg aria-roledescription="flowchart-v2" role="graphics-document document" viewBox="-8 -8 855.4987182617188 1669.4195556640625" style="max-width: 855.4987182617188px;" xmlns="http://www.w3.org/2000/svg" width="100%" id="mermaid-svg-1768188267942-zl990xsb4"><style>#mermaid-svg-1768188267942-zl990xsb4{font-family:"trebuchet ms",verdana,arial,sans-serif;font-size:16px;fill:rgba(228, 228, 228, 0.92);}#mermaid-svg-1768188267942-zl990xsb4 .error-icon{fill:#141414;}#mermaid-svg-1768188267942-zl990xsb4 .error-text{fill:#e34671;stroke:#e34671;}#mermaid-svg-1768188267942-zl990xsb4 .edge-thickness-normal{stroke-width:2px;}#mermaid-svg-1768188267942-zl990xsb4 .edge-thickness-thick{stroke-width:3.5px;}#mermaid-svg-1768188267942-zl990xsb4 .edge-pattern-solid{stroke-dasharray:0;}#mermaid-svg-1768188267942-zl990xsb4 .edge-pattern-dashed{stroke-dasharray:3;}#mermaid-svg-1768188267942-zl990xsb4 .edge-pattern-dotted{stroke-dasharray:2;}#mermaid-svg-1768188267942-zl990xsb4 .marker{fill:rgba(228, 228, 228, 0.65);stroke:rgba(228, 228, 228, 0.65);}#mermaid-svg-1768188267942-zl990xsb4 .marker.cross{stroke:rgba(228, 228, 228, 0.65);}#mermaid-svg-1768188267942-zl990xsb4 svg{font-family:"trebuchet ms",verdana,arial,sans-serif;font-size:16px;}#mermaid-svg-1768188267942-zl990xsb4 .label{font-family:"trebuchet ms",verdana,arial,sans-serif;color:rgba(228, 228, 228, 0.92);}#mermaid-svg-1768188267942-zl990xsb4 .cluster-label text{fill:rgba(228, 228, 228, 0.92);}#mermaid-svg-1768188267942-zl990xsb4 .cluster-label span,#mermaid-svg-1768188267942-zl990xsb4 p{color:rgba(228, 228, 228, 0.92);}#mermaid-svg-1768188267942-zl990xsb4 .label text,#mermaid-svg-1768188267942-zl990xsb4 span,#mermaid-svg-1768188267942-zl990xsb4 p{fill:rgba(228, 228, 228, 0.92);color:rgba(228, 228, 228, 0.92);}#mermaid-svg-1768188267942-zl990xsb4 .node rect,#mermaid-svg-1768188267942-zl990xsb4 .node circle,#mermaid-svg-1768188267942-zl990xsb4 .node ellipse,#mermaid-svg-1768188267942-zl990xsb4 .node polygon,#mermaid-svg-1768188267942-zl990xsb4 .node path{fill:#181818;stroke:#454545;stroke-width:1px;}#mermaid-svg-1768188267942-zl990xsb4 .flowchart-label text{text-anchor:middle;}#mermaid-svg-1768188267942-zl990xsb4 .node .label{text-align:center;}#mermaid-svg-1768188267942-zl990xsb4 .node.clickable{cursor:pointer;}#mermaid-svg-1768188267942-zl990xsb4 .arrowheadPath{fill:#e7e7e7;}#mermaid-svg-1768188267942-zl990xsb4 .edgePath .path{stroke:rgba(228, 228, 228, 0.65);stroke-width:2.0px;}#mermaid-svg-1768188267942-zl990xsb4 .flowchart-link{stroke:rgba(228, 228, 228, 0.65);fill:none;}#mermaid-svg-1768188267942-zl990xsb4 .edgeLabel{background-color:#18181899;text-align:center;}#mermaid-svg-1768188267942-zl990xsb4 .edgeLabel rect{opacity:0.5;background-color:#18181899;fill:#18181899;}#mermaid-svg-1768188267942-zl990xsb4 .labelBkg{background-color:rgba(24, 24, 24, 0.5);}#mermaid-svg-1768188267942-zl990xsb4 .cluster rect{fill:rgba(64, 64, 64, 0.47);stroke:#454545;stroke-width:1px;}#mermaid-svg-1768188267942-zl990xsb4 .cluster text{fill:rgba(228, 228, 228, 0.92);}#mermaid-svg-1768188267942-zl990xsb4 .cluster span,#mermaid-svg-1768188267942-zl990xsb4 p{color:rgba(228, 228, 228, 0.92);}#mermaid-svg-1768188267942-zl990xsb4 div.mermaidTooltip{position:absolute;text-align:center;max-width:200px;padding:2px;font-family:"trebuchet ms",verdana,arial,sans-serif;font-size:12px;background:rgba(64, 64, 64, 0.6);border:1px solid #454545;border-radius:2px;pointer-events:none;z-index:100;}#mermaid-svg-1768188267942-zl990xsb4 .flowchartTitleText{text-anchor:middle;font-size:18px;fill:rgba(228, 228, 228, 0.92);}#mermaid-svg-1768188267942-zl990xsb4 :root{--mermaid-font-family:"trebuchet ms",verdana,arial,sans-serif;}</style><g><marker orient="auto" markerHeight="12" markerWidth="12" markerUnits="userSpaceOnUse" refY="5" refX="6" viewBox="0 0 10 10" class="marker flowchart" id="mermaid-svg-1768188267942-zl990xsb4_flowchart-pointEnd"><path style="stroke-width: 1; stroke-dasharray: 1, 0;" class="arrowMarkerPath" d="M 0 0 L 10 5 L 0 10 z"/></marker><marker orient="auto" markerHeight="12" markerWidth="12" markerUnits="userSpaceOnUse" refY="5" refX="4.5" viewBox="0 0 10 10" class="marker flowchart" id="mermaid-svg-1768188267942-zl990xsb4_flowchart-pointStart"><path style="stroke-width: 1; stroke-dasharray: 1, 0;" class="arrowMarkerPath" d="M 0 5 L 10 10 L 10 0 z"/></marker><marker orient="auto" markerHeight="11" markerWidth="11" markerUnits="userSpaceOnUse" refY="5" refX="11" viewBox="0 0 10 10" class="marker flowchart" id="mermaid-svg-1768188267942-zl990xsb4_flowchart-circleEnd"><circle style="stroke-width: 1; stroke-dasharray: 1, 0;" class="arrowMarkerPath" r="5" cy="5" cx="5"/></marker><marker orient="auto" markerHeight="11" markerWidth="11" markerUnits="userSpaceOnUse" refY="5" refX="-1" viewBox="0 0 10 10" class="marker flowchart" id="mermaid-svg-1768188267942-zl990xsb4_flowchart-circleStart"><circle style="stroke-width: 1; stroke-dasharray: 1, 0;" class="arrowMarkerPath" r="5" cy="5" cx="5"/></marker><marker orient="auto" markerHeight="11" markerWidth="11" markerUnits="userSpaceOnUse" refY="5.2" refX="12" viewBox="0 0 11 11" class="marker cross flowchart" id="mermaid-svg-1768188267942-zl990xsb4_flowchart-crossEnd"><path style="stroke-width: 2; stroke-dasharray: 1, 0;" class="arrowMarkerPath" d="M 1,1 l 9,9 M 10,1 l -9,9"/></marker><marker orient="auto" markerHeight="11" markerWidth="11" markerUnits="userSpaceOnUse" refY="5.2" refX="-1" viewBox="0 0 11 11" class="marker cross flowchart" id="mermaid-svg-1768188267942-zl990xsb4_flowchart-crossStart"><path style="stroke-width: 2; stroke-dasharray: 1, 0;" class="arrowMarkerPath" d="M 1,1 l 9,9 M 10,1 l -9,9"/></marker><g class="root"><g class="clusters"><g id="External" class="cluster default flowchart-label"><rect height="83.66666793823242" width="328.81510162353516" y="1569.7529830932617" x="490.6204471588135" ry="0" rx="0" style=""/><g transform="translate(655.027997970581, 1569.7529830932617)" class="cluster-label"><text style=""><tspan class="row" x="0" dy="1em" xml:space="preserve">External Services</tspan></text></g></g><g id="Backend" class="cluster default flowchart-label"><rect height="1200.086311340332" width="839.498701095581" y="319.6666717529297" x="0" ry="0" rx="0" style="fill:#fff3e0;"/><g transform="translate(419.7493505477905, 319.6666717529297)" class="cluster-label"><text style=""><tspan class="row" x="0" dy="1em" xml:space="preserve">Backend - FastAPI</tspan></text></g></g><g id="Frontend" class="cluster default flowchart-label"><rect height="251.00000381469727" width="573.4980545043945" y="0" x="30.630207061767578" ry="0" rx="0" style="fill:#e1f5ff;"/><g transform="translate(317.37923431396484, 0)" class="cluster-label"><text style=""><tspan class="row" x="0" dy="1em" xml:space="preserve">Frontend - React</tspan></text></g></g><g id="Pipeline" class="cluster default flowchart-label"><rect height="714.5000114440918" width="374.3964900970459" y="614.3333435058594" x="80.63020706176758" ry="0" rx="0" style=""/><g transform="translate(267.8284521102905, 614.3333435058594)" class="cluster-label"><text style=""><tspan class="row" x="0" dy="1em" xml:space="preserve">Evidence-First Pipeline</tspan></text></g></g><g id="LLM" class="cluster default flowchart-label"><rect height="362.41962814331055" width="344.4720039367676" y="1132.3333549499512" x="475.0266971588135" ry="0" rx="0" style="fill:#f3e5f5;"/><g transform="translate(647.2626991271973, 1132.3333549499512)" class="cluster-label"><text style=""><tspan class="row" x="0" dy="1em" xml:space="preserve">LLM Services</tspan></text></g></g></g><g class="edgePaths"><path marker-end="url(#mermaid-svg-1768188267942-zl990xsb4_flowchart-pointEnd)" style="fill:none;" class="edge-thickness-normal edge-pattern-solid flowchart-link LS-UI LE-Upload" id="L-UI-Upload-0" d="M198.728,58.667L190.678,62.833C182.628,67,166.528,75.333,158.478,82.783C150.428,90.233,150.428,96.8,150.428,100.083L150.428,103.367"/><path marker-end="url(#mermaid-svg-1768188267942-zl990xsb4_flowchart-pointEnd)" style="fill:none;" class="edge-thickness-normal edge-pattern-solid flowchart-link LS-UI LE-Status" id="L-UI-Status-0" d="M263.772,58.667L271.822,62.833C279.872,67,295.972,75.333,304.022,82.783C312.072,90.233,312.072,96.8,312.072,100.083L312.072,103.367"/><path marker-end="url(#mermaid-svg-1768188267942-zl990xsb4_flowchart-pointEnd)" style="fill:none;" class="edge-thickness-normal edge-pattern-solid flowchart-link LS-UI LE-Results" id="L-UI-Results-0" d="M268.609,47.765L306.299,53.748C343.988,59.732,419.366,71.699,457.055,80.966C494.744,90.233,494.744,96.8,494.744,100.083L494.744,103.367"/><path marker-end="url(#mermaid-svg-1768188267942-zl990xsb4_flowchart-pointEnd)" style="fill:none;" class="edge-thickness-normal edge-pattern-solid flowchart-link LS-Upload LE-APIClient" id="L-Upload-APIClient-0" d="M150.428,142.333L150.428,146.5C150.428,150.667,150.428,159,157.913,166.936C165.399,174.872,180.37,182.411,187.855,186.18L195.341,189.95"/><path marker-end="url(#mermaid-svg-1768188267942-zl990xsb4_flowchart-pointEnd)" style="fill:none;" class="edge-thickness-normal edge-pattern-solid flowchart-link LS-Status LE-APIClient" id="L-Status-APIClient-0" d="M312.072,142.333L312.072,146.5C312.072,150.667,312.072,159,305.026,166.918C297.98,174.836,283.889,182.339,276.843,186.091L269.797,189.842"/><path marker-end="url(#mermaid-svg-1768188267942-zl990xsb4_flowchart-pointEnd)" style="fill:none;" class="edge-thickness-normal edge-pattern-solid flowchart-link LS-Results LE-APIClient" id="L-Results-APIClient-0" d="M494.744,142.333L494.744,146.5C494.744,150.667,494.744,159,459.267,168.848C423.789,178.696,352.835,190.058,317.357,195.739L281.88,201.42"/><path marker-end="url(#mermaid-svg-1768188267942-zl990xsb4_flowchart-pointEnd)" style="fill:none;" class="edge-thickness-normal edge-pattern-solid flowchart-link LS-APIClient LE-API" id="L-APIClient-API-0" d="M202.094,226L194.319,230.167C186.545,234.333,170.996,242.667,163.221,252.556C155.447,262.444,155.447,273.889,155.447,285.333C155.447,296.778,155.447,308.222,172.317,318.211C189.187,328.199,222.928,336.732,239.799,340.998L256.669,345.264"/><path marker-end="url(#mermaid-svg-1768188267942-zl990xsb4_flowchart-pointEnd)" style="fill:none;" class="edge-thickness-normal edge-pattern-solid flowchart-link LS-APIClient LE-API" id="L-APIClient-API-1" d="M247.762,226L251.291,230.167C254.821,234.333,261.879,242.667,265.409,252.556C268.938,262.444,268.938,273.889,268.938,285.333C268.938,296.778,268.938,308.222,273.423,317.557C277.908,326.892,286.877,334.117,291.362,337.729L295.846,341.342"/><path marker-end="url(#mermaid-svg-1768188267942-zl990xsb4_flowchart-pointEnd)" style="fill:none;" class="edge-thickness-normal edge-pattern-solid flowchart-link LS-APIClient LE-API" id="L-APIClient-API-2" d="M276.646,216.69L309.438,222.408C342.23,228.127,407.814,239.563,440.605,251.004C473.397,262.444,473.397,273.889,473.397,285.333C473.397,296.778,473.397,308.222,458.672,317.983C443.947,327.744,414.496,335.821,399.771,339.86L385.046,343.899"/><path marker-end="url(#mermaid-svg-1768188267942-zl990xsb4_flowchart-pointEnd)" style="fill:none;" class="edge-thickness-normal edge-pattern-solid flowchart-link LS-API LE-Router" id="L-API-Router-0" d="M320.871,378.333L320.871,382.5C320.871,386.667,320.871,395,320.871,402.45C320.871,409.9,320.871,416.467,320.871,419.75L320.871,423.033"/><path marker-end="url(#mermaid-svg-1768188267942-zl990xsb4_flowchart-pointEnd)" style="fill:none;" class="edge-thickness-normal edge-pattern-solid flowchart-link LS-Router LE-JobMgr" id="L-Router-JobMgr-0" d="M320.871,462L320.871,466.167C320.871,470.333,320.871,478.667,320.871,486.117C320.871,493.567,320.871,500.133,320.871,503.417L320.871,506.7"/><path marker-end="url(#mermaid-svg-1768188267942-zl990xsb4_flowchart-pointEnd)" marker-start="url(#mermaid-svg-1768188267942-zl990xsb4_flowchart-pointStart)" style="fill:none;" class="edge-thickness-normal edge-pattern-solid flowchart-link LS-JobMgr LE-Store" id="L-JobMgr-Store-0" d="M263.033,540.205L229.299,546.838C195.565,553.47,128.098,566.735,94.364,579.09C60.63,591.444,60.63,602.889,60.63,615.583C60.63,628.278,60.63,642.222,60.63,657.722C60.63,673.222,60.63,690.278,60.63,707.333C60.63,724.389,60.63,741.444,60.63,756.944C60.63,772.444,60.63,786.389,60.63,800.333C60.63,814.278,60.63,828.222,60.63,843.722C60.63,859.222,60.63,876.278,60.63,893.333C60.63,910.389,60.63,927.444,60.63,944.5C60.63,961.556,60.63,978.611,60.63,995.667C60.63,1012.722,60.63,1029.778,60.63,1046.833C60.63,1063.889,60.63,1080.944,60.63,1095.194C60.63,1109.444,60.63,1120.889,60.63,1142.986C60.63,1165.083,60.63,1197.833,60.63,1230.583C60.63,1263.333,60.63,1296.083,60.63,1318.181C60.63,1340.278,60.63,1351.722,92.108,1365.967C123.585,1380.212,186.54,1397.257,218.017,1405.779L249.495,1414.302"/><path marker-end="url(#mermaid-svg-1768188267942-zl990xsb4_flowchart-pointEnd)" style="fill:none;" class="edge-thickness-normal edge-pattern-solid flowchart-link LS-JobMgr LE-PDFExt" id="L-JobMgr-PDFExt-0" d="M320.871,545.667L320.871,551.389C320.871,557.111,320.871,568.556,320.871,580C320.871,591.444,320.871,602.889,320.871,611.894C320.871,620.9,320.871,627.467,320.871,630.75L320.871,634.033"/><path marker-end="url(#mermaid-svg-1768188267942-zl990xsb4_flowchart-pointEnd)" style="fill:none;" class="edge-thickness-normal edge-pattern-solid flowchart-link LS-PDFExt LE-DocArt" id="L-PDFExt-DocArt-0" d="M320.871,673L320.871,678.722C320.871,684.444,320.871,695.889,320.871,706.45C320.871,717.011,320.871,726.689,320.871,731.528L320.871,736.367"/><path marker-end="url(#mermaid-svg-1768188267942-zl990xsb4_flowchart-pointEnd)" style="fill:none;" class="edge-thickness-normal edge-pattern-solid flowchart-link LS-DocArt LE-Chunker" id="L-DocArt-Chunker-0" d="M271.391,775.333L259.143,779.5C246.895,783.667,222.4,792,210.153,799.45C197.905,806.9,197.905,813.467,197.905,816.75L197.905,820.033"/><path marker-end="url(#mermaid-svg-1768188267942-zl990xsb4_flowchart-pointEnd)" style="fill:none;" class="edge-thickness-normal edge-pattern-solid flowchart-link LS-Chunker LE-Retriever" id="L-Chunker-Retriever-0" d="M197.905,859L197.905,864.722C197.905,870.444,197.905,881.889,197.905,892.45C197.905,903.011,197.905,912.689,197.905,917.528L197.905,922.367"/><path marker-end="url(#mermaid-svg-1768188267942-zl990xsb4_flowchart-pointEnd)" style="fill:none;" class="edge-thickness-normal edge-pattern-solid flowchart-link LS-Retriever LE-CompAnalyzer" id="L-Retriever-CompAnalyzer-0" d="M197.905,961.333L197.905,967.056C197.905,972.778,197.905,984.222,197.905,994.783C197.905,1005.344,197.905,1015.022,197.905,1019.861L197.905,1024.7"/><path marker-end="url(#mermaid-svg-1768188267942-zl990xsb4_flowchart-pointEnd)" style="fill:none;" class="edge-thickness-normal edge-pattern-solid flowchart-link LS-CompAnalyzer LE-LLMInterface" id="L-CompAnalyzer-LLMInterface-0" d="M265.007,1063.667L287.818,1069.389C310.628,1075.111,356.249,1086.556,379.059,1098C401.87,1109.444,401.87,1120.889,439.615,1139.655C477.359,1158.421,552.849,1184.509,590.594,1197.553L628.338,1210.597"/><path marker-end="url(#mermaid-svg-1768188267942-zl990xsb4_flowchart-pointEnd)" style="fill:none;" class="edge-thickness-normal edge-pattern-solid flowchart-link LS-LLMInterface LE-ExtAPI" id="L-LLMInterface-ExtAPI-0" d="M648.291,1264.782L635.58,1275.457C622.869,1286.132,597.448,1307.483,584.737,1323.88C572.027,1340.278,572.027,1351.722,572.027,1365.499C572.027,1379.276,572.027,1395.384,572.027,1403.439L572.027,1411.493"/><path marker-end="url(#mermaid-svg-1768188267942-zl990xsb4_flowchart-pointEnd)" style="fill:none;" class="edge-thickness-normal edge-pattern-solid flowchart-link LS-LLMInterface LE-LocalLLM" id="L-LLMInterface-LocalLLM-0" d="M708.692,1283.484L711.649,1291.042C714.606,1298.601,720.52,1313.717,723.477,1326.997C726.434,1340.278,726.434,1351.722,726.434,1365.499C726.434,1379.276,726.434,1395.384,726.434,1403.439L726.434,1411.493"/><path marker-end="url(#mermaid-svg-1768188267942-zl990xsb4_flowchart-pointEnd)" style="fill:none;" class="edge-thickness-normal edge-pattern-solid flowchart-link LS-ExtAPI LE-OpenAI" id="L-ExtAPI-OpenAI-0" d="M572.027,1450.46L572.027,1457.842C572.027,1465.224,572.027,1479.989,572.027,1491.537C572.027,1503.086,572.027,1511.42,572.027,1519.753C572.027,1528.086,572.027,1536.42,572.027,1544.753C572.027,1553.086,572.027,1561.42,572.027,1568.87C572.027,1576.32,572.027,1582.886,572.027,1586.17L572.027,1589.453"/><path marker-end="url(#mermaid-svg-1768188267942-zl990xsb4_flowchart-pointEnd)" style="fill:none;" class="edge-thickness-normal edge-pattern-solid flowchart-link LS-LocalLLM LE-Ollama" id="L-LocalLLM-Ollama-0" d="M726.434,1450.46L726.434,1457.842C726.434,1465.224,726.434,1479.989,726.434,1491.537C726.434,1503.086,726.434,1511.42,726.434,1519.753C726.434,1528.086,726.434,1536.42,726.434,1544.753C726.434,1553.086,726.434,1561.42,726.434,1568.87C726.434,1576.32,726.434,1582.886,726.434,1586.17L726.434,1589.453"/><path marker-end="url(#mermaid-svg-1768188267942-zl990xsb4_flowchart-pointEnd)" style="fill:none;" class="edge-thickness-normal edge-pattern-solid flowchart-link LS-CompAnalyzer LE-QuoteVal" id="L-CompAnalyzer-QuoteVal-0" d="M197.905,1063.667L197.905,1069.389C197.905,1075.111,197.905,1086.556,197.905,1098C197.905,1109.444,197.905,1120.889,214.198,1139.629C230.491,1158.369,263.077,1184.406,279.37,1197.424L295.662,1210.442"/><path marker-end="url(#mermaid-svg-1768188267942-zl990xsb4_flowchart-pointEnd)" style="fill:none;" class="edge-thickness-normal edge-pattern-solid flowchart-link LS-QuoteVal LE-DocArt" id="L-QuoteVal-DocArt-0" d="M327.832,1213.75L333.444,1200.181C339.055,1186.611,350.278,1159.472,355.89,1140.181C361.501,1120.889,361.501,1109.444,361.501,1095.194C361.501,1080.944,361.501,1063.889,361.501,1046.833C361.501,1029.778,361.501,1012.722,361.501,995.667C361.501,978.611,361.501,961.556,361.501,944.5C361.501,927.444,361.501,910.389,361.501,893.333C361.501,876.278,361.501,859.222,361.501,843.722C361.501,828.222,361.501,814.278,358.07,803.773C354.639,793.267,347.776,786.201,344.344,782.668L340.913,779.135"/><path marker-end="url(#mermaid-svg-1768188267942-zl990xsb4_flowchart-pointEnd)" style="fill:none;" class="edge-thickness-normal edge-pattern-solid flowchart-link LS-QuoteVal LE-Store" id="L-QuoteVal-Store-0" d="M320.871,1247.417L320.871,1260.986C320.871,1274.556,320.871,1301.694,320.871,1320.986C320.871,1340.278,320.871,1351.722,320.871,1362.283C320.871,1372.844,320.871,1382.522,320.871,1387.361L320.871,1392.2"/></g><g class="edgeLabels"><g class="edgeLabel"><g transform="translate(0, 0)" class="label"><rect height="0" width="0" ry="0" rx="0"/><text style=""><tspan class="row" x="0" dy="1em" xml:space="preserve"/></text></g></g><g class="edgeLabel"><g transform="translate(0, 0)" class="label"><rect height="0" width="0" ry="0" rx="0"/><text style=""><tspan class="row" x="0" dy="1em" xml:space="preserve"/></text></g></g><g class="edgeLabel"><g transform="translate(0, 0)" class="label"><rect height="0" width="0" ry="0" rx="0"/><text style=""><tspan class="row" x="0" dy="1em" xml:space="preserve"/></text></g></g><g class="edgeLabel"><g transform="translate(0, 0)" class="label"><rect height="0" width="0" ry="0" rx="0"/><text style=""><tspan class="row" x="0" dy="1em" xml:space="preserve"/></text></g></g><g class="edgeLabel"><g transform="translate(0, 0)" class="label"><rect height="0" width="0" ry="0" rx="0"/><text style=""><tspan class="row" x="0" dy="1em" xml:space="preserve"/></text></g></g><g class="edgeLabel"><g transform="translate(0, 0)" class="label"><rect height="0" width="0" ry="0" rx="0"/><text style=""><tspan class="row" x="0" dy="1em" xml:space="preserve"/></text></g></g><g transform="translate(155.44661331176758, 285.3333377838135)" class="edgeLabel"><g transform="translate(-48.94791793823242, -9.333333969116211)" class="label"><rect height="18.66693115234375" width="97.85555267333984" ry="0" rx="0"/><text style=""><tspan class="row" x="0" dy="1em" xml:space="preserve">POST /upload</tspan></text></g></g><g transform="translate(268.9381523132324, 285.3333377838135)" class="edgeLabel"><g transform="translate(-42.290367126464844, -9.333333969116211)" class="label"><rect height="18.66693115234375" width="84.54940795898438" ry="0" rx="0"/><text style=""><tspan class="row" x="0" dy="1em" xml:space="preserve">GET /status</tspan></text></g></g><g transform="translate(473.3971424102783, 285.3333377838135)" class="edgeLabel"><g transform="translate(-41.575523376464844, -9.333333969116211)" class="label"><rect height="18.66693115234375" width="83.12028503417969" ry="0" rx="0"/><text style=""><tspan class="row" x="0" dy="1em" xml:space="preserve">GET /result</tspan></text></g></g><g class="edgeLabel"><g transform="translate(0, 0)" class="label"><rect height="0" width="0" ry="0" rx="0"/><text style=""><tspan class="row" x="0" dy="1em" xml:space="preserve"/></text></g></g><g class="edgeLabel"><g transform="translate(0, 0)" class="label"><rect height="0" width="0" ry="0" rx="0"/><text style=""><tspan class="row" x="0" dy="1em" xml:space="preserve"/></text></g></g><g class="edgeLabel"><g transform="translate(0, 0)" class="label"><rect height="0" width="0" ry="0" rx="0"/><text style=""><tspan class="row" x="0" dy="1em" xml:space="preserve"/></text></g></g><g transform="translate(320.87109756469727, 580.0000095367432)" class="edgeLabel"><g transform="translate(-49.36198043823242, -9.333333969116211)" class="label"><rect height="18.66693115234375" width="98.68721008300781" ry="0" rx="0"/><text style=""><tspan class="row" x="0" dy="1em" xml:space="preserve">Async Process</tspan></text></g></g><g transform="translate(320.87109756469727, 707.333345413208)" class="edgeLabel"><g transform="translate(-27.32942771911621, -9.333333969116211)" class="label"><rect height="18.66693115234375" width="54.63960647583008" ry="0" rx="0"/><text style=""><tspan class="row" x="0" dy="1em" xml:space="preserve">Creates</tspan></text></g></g><g class="edgeLabel"><g transform="translate(0, 0)" class="label"><rect height="0" width="0" ry="0" rx="0"/><text style=""><tspan class="row" x="0" dy="1em" xml:space="preserve"/></text></g></g><g transform="translate(197.90494918823242, 893.3333492279053)" class="edgeLabel"><g transform="translate(-57.266929626464844, -9.333333969116211)" class="label"><rect height="18.66693115234375" width="114.49044799804688" ry="0" rx="0"/><text style=""><tspan class="row" x="0" dy="1em" xml:space="preserve">EvidenceChunks</tspan></text></g></g><g transform="translate(197.90494918823242, 995.6666851043701)" class="edgeLabel"><g transform="translate(-54.6875, -9.333333969116211)" class="label"><rect height="18.66693115234375" width="109.33488464355469" ry="0" rx="0"/><text style=""><tspan class="row" x="0" dy="1em" xml:space="preserve">Top-K Evidence</tspan></text></g></g><g class="edgeLabel"><g transform="translate(0, 0)" class="label"><rect height="0" width="0" ry="0" rx="0"/><text style=""><tspan class="row" x="0" dy="1em" xml:space="preserve"/></text></g></g><g transform="translate(572.0266971588135, 1363.1666889190674)" class="edgeLabel"><g transform="translate(-54.421875, -9.333333969116211)" class="label"><rect height="18.66693115234375" width="108.80362701416016" ry="0" rx="0"/><text style=""><tspan class="row" x="0" dy="1em" xml:space="preserve">Mode: external</tspan></text></g></g><g transform="translate(726.434247970581, 1363.1666889190674)" class="edgeLabel"><g transform="translate(-41.645835876464844, -9.333333969116211)" class="label"><rect height="18.66693115234375" width="83.2615966796875" ry="0" rx="0"/><text style=""><tspan class="row" x="0" dy="1em" xml:space="preserve">Mode: local</tspan></text></g></g><g class="edgeLabel"><g transform="translate(0, 0)" class="label"><rect height="0" width="0" ry="0" rx="0"/><text style=""><tspan class="row" x="0" dy="1em" xml:space="preserve"/></text></g></g><g class="edgeLabel"><g transform="translate(0, 0)" class="label"><rect height="0" width="0" ry="0" rx="0"/><text style=""><tspan class="row" x="0" dy="1em" xml:space="preserve"/></text></g></g><g transform="translate(197.90494918823242, 1098.000020980835)" class="edgeLabel"><g transform="translate(-70.61067962646484, -9.333333969116211)" class="label"><rect height="18.66693115234375" width="141.16720581054688" ry="0" rx="0"/><text style=""><tspan class="row" x="0" dy="1em" xml:space="preserve">Results with Quotes</tspan></text></g></g><g transform="translate(361.50130462646484, 944.5000171661377)" class="edgeLabel"><g transform="translate(-60.73698043823242, -9.333333969116211)" class="label"><rect height="18.66693115234375" width="121.42803955078125" ry="0" rx="0"/><text style=""><tspan class="row" x="0" dy="1em" xml:space="preserve">Validates against</tspan></text></g></g><g transform="translate(320.87109756469727, 1363.1666889190674)" class="edgeLabel"><g transform="translate(-61.47916793823242, -9.333333969116211)" class="label"><rect height="18.66693115234375" width="122.91181182861328" ry="0" rx="0"/><text style=""><tspan class="row" x="0" dy="1em" xml:space="preserve">Validated Results</tspan></text></g></g></g><g class="nodes"><g transform="translate(572.0266971588135, 1611.586317062378)" id="flowchart-OpenAI-146" class="node default default flowchart-label"><rect height="33.66666793823242" width="92.8125" y="-16.83333396911621" x="-46.40625" ry="0" rx="0" style="" class="basic label-container"/><g transform="translate(0, -9.333333969116211)" style="" class="label"><rect/><text style=""><tspan class="row" x="0" dy="1em" xml:space="preserve">OpenAI API</tspan></text></g></g><g transform="translate(726.434247970581, 1611.586317062378)" id="flowchart-Ollama-147" class="node default default flowchart-label"><rect height="33.66666793823242" width="116.00260925292969" y="-16.83333396911621" x="-58.001304626464844" ry="0" rx="0" style="" class="basic label-container"/><g transform="translate(0, -9.333333969116211)" style="" class="label"><rect/><text style=""><tspan class="row" x="0" dy="1em" xml:space="preserve">Ollama Server</tspan></text></g></g><g transform="translate(320.87109756469727, 361.5000057220459)" id="flowchart-API-133" class="node default default flowchart-label"><rect height="33.66666793823242" width="118.12760925292969" y="-16.83333396911621" x="-59.063804626464844" ry="0" rx="0" style="" class="basic label-container"/><g transform="translate(0, -9.333333969116211)" style="" class="label"><rect/><text style=""><tspan class="row" x="0" dy="1em" xml:space="preserve">FastAPI Server</tspan></text></g></g><g transform="translate(320.87109756469727, 445.1666736602783)" id="flowchart-Router-134" class="node default default flowchart-label"><rect height="33.66666793823242" width="91.02864837646484" y="-16.83333396911621" x="-45.51432418823242" ry="0" rx="0" style="" class="basic label-container"/><g transform="translate(0, -9.333333969116211)" style="" class="label"><rect/><text style=""><tspan class="row" x="0" dy="1em" xml:space="preserve">API Routes</tspan></text></g></g><g transform="translate(320.87109756469727, 528.8333415985107)" id="flowchart-JobMgr-135" class="node default default flowchart-label"><rect height="33.66666793823242" width="105.27604675292969" y="-16.83333396911621" x="-52.638023376464844" ry="0" rx="0" style="" class="basic label-container"/><g transform="translate(0, -9.333333969116211)" style="" class="label"><rect/><text style=""><tspan class="row" x="0" dy="1em" xml:space="preserve">Job Manager</tspan></text></g></g><g transform="translate(320.87109756469727, 1433.6265029907227)" id="flowchart-Store-136" class="node default default flowchart-label"><path transform="translate(-66.26041793823242,-36.13092334068598)" d="M 0,12.865059581046516 a 66.26041793823242,12.865059581046516 0,0,0 132.52083587646484 0 a 66.26041793823242,12.865059581046516 0,0,0 -132.52083587646484 0 l 0,46.53172751927894 a 66.26041793823242,12.865059581046516 0,0,0 132.52083587646484 0 l 0,-46.53172751927894" style="fill:#e8f5e9;"/><g transform="translate(0, -9.333333969116211)" style="" class="label"><rect/><text style=""><tspan class="row" x="0" dy="1em" xml:space="preserve">In-Memory Store</tspan></text></g></g><g transform="translate(687.3424530029297, 1230.5833549499512)" id="flowchart-LLMInterface-143" class="node default default flowchart-label"><polygon style="" transform="translate(-73.25000190734863,73.25000190734863)" class="label-container" points="73.25000190734863,0 146.50000381469727,-73.25000190734863 73.25000190734863,-146.50000381469727 0,-73.25000190734863"/><g transform="translate(0, -9.333333969116211)" style="" class="label"><rect/><text style=""><tspan class="row" x="0" dy="1em" xml:space="preserve">LLM Interface</tspan></text></g></g><g transform="translate(572.0266971588135, 1433.6265029907227)" id="flowchart-ExtAPI-144" class="node default default flowchart-label"><rect height="33.66666793823242" width="101.5" y="-16.83333396911621" x="-50.75" ry="0" rx="0" style="" class="basic label-container"/><g transform="translate(0, -9.333333969116211)" style="" class="label"><rect/><text style=""><tspan class="row" x="0" dy="1em" xml:space="preserve">External API</tspan></text></g></g><g transform="translate(726.434247970581, 1433.6265029907227)" id="flowchart-LocalLLM-145" class="node default default flowchart-label"><rect height="33.66666793823242" width="85.7578125" y="-16.83333396911621" x="-42.87890625" ry="0" rx="0" style="" class="basic label-container"/><g transform="translate(0, -9.333333969116211)" style="" class="label"><rect/><text style=""><tspan class="row" x="0" dy="1em" xml:space="preserve">Local LLM</tspan></text></g></g><g transform="translate(320.87109756469727, 656.1666774749756)" id="flowchart-PDFExt-137" class="node default default flowchart-label"><rect height="33.66666793823242" width="114.02604675292969" y="-16.83333396911621" x="-57.013023376464844" ry="0" rx="0" style="" class="basic label-container"/><g transform="translate(0, -9.333333969116211)" style="" class="label"><rect/><text style=""><tspan class="row" x="0" dy="1em" xml:space="preserve">PDF Extractor</tspan></text></g></g><g transform="translate(320.87109756469727, 758.5000133514404)" id="flowchart-DocArt-138" class="node default default flowchart-label"><rect height="33.66666793823242" width="142.6276092529297" y="-16.83333396911621" x="-71.31380462646484" ry="0" rx="0" style="fill:#fce4ec;" class="basic label-container"/><g transform="translate(0, -9.333333969116211)" style="" class="label"><rect/><text style=""><tspan class="row" x="0" dy="1em" xml:space="preserve">DocumentArtifact</tspan></text></g></g><g transform="translate(197.90494918823242, 842.1666812896729)" id="flowchart-Chunker-139" class="node default default flowchart-label"><rect height="33.66666793823242" width="136.71875" y="-16.83333396911621" x="-68.359375" ry="0" rx="0" style="" class="basic label-container"/><g transform="translate(0, -9.333333969116211)" style="" class="label"><rect/><text style=""><tspan class="row" x="0" dy="1em" xml:space="preserve">Chunking Service</tspan></text></g></g><g transform="translate(197.90494918823242, 944.5000171661377)" id="flowchart-Retriever-140" class="node default default flowchart-label"><rect height="33.66666793823242" width="135.71875" y="-16.83333396911621" x="-67.859375" ry="0" rx="0" style="" class="basic label-container"/><g transform="translate(0, -9.333333969116211)" style="" class="label"><rect/><text style=""><tspan class="row" x="0" dy="1em" xml:space="preserve">Retrieval Service</tspan></text></g></g><g transform="translate(197.90494918823242, 1046.8333530426025)" id="flowchart-CompAnalyzer-141" class="node default default flowchart-label"><rect height="33.66666793823242" width="164.5494842529297" y="-16.83333396911621" x="-82.27474212646484" ry="0" rx="0" style="" class="basic label-container"/><g transform="translate(0, -9.333333969116211)" style="" class="label"><rect/><text style=""><tspan class="row" x="0" dy="1em" xml:space="preserve">Compliance Analyzer</tspan></text></g></g><g transform="translate(320.87109756469727, 1230.5833549499512)" id="flowchart-QuoteVal-142" class="node default default flowchart-label"><rect height="33.66666793823242" width="127.77604675292969" y="-16.83333396911621" x="-63.888023376464844" ry="0" rx="0" style="" class="basic label-container"/><g transform="translate(0, -9.333333969116211)" style="" class="label"><rect/><text style=""><tspan class="row" x="0" dy="1em" xml:space="preserve">Quote Validator</tspan></text></g></g><g transform="translate(231.25, 41.83333396911621)" id="flowchart-UI-128" class="node default default flowchart-label"><rect height="33.66666793823242" width="74.71875" y="-16.83333396911621" x="-37.359375" ry="0" rx="0" style="" class="basic label-container"/><g transform="translate(0, -9.333333969116211)" style="" class="label"><rect/><text style=""><tspan class="row" x="0" dy="1em" xml:space="preserve">React UI</tspan></text></g></g><g transform="translate(150.427734375, 125.50000190734863)" id="flowchart-Upload-129" class="node default default flowchart-label"><rect height="33.66666793823242" width="106.71354675292969" y="-16.83333396911621" x="-53.356773376464844" ry="0" rx="0" style="" class="basic label-container"/><g transform="translate(0, -9.333333969116211)" style="" class="label"><rect/><text style=""><tspan class="row" x="0" dy="1em" xml:space="preserve">FileUploader</tspan></text></g></g><g transform="translate(312.072265625, 125.50000190734863)" id="flowchart-Status-130" class="node default default flowchart-label"><rect height="33.66666793823242" width="116.57552337646484" y="-16.83333396911621" x="-58.28776168823242" ry="0" rx="0" style="" class="basic label-container"/><g transform="translate(0, -9.333333969116211)" style="" class="label"><rect/><text style=""><tspan class="row" x="0" dy="1em" xml:space="preserve">AnalysisStatus</tspan></text></g></g><g transform="translate(494.74414443969727, 125.50000190734863)" id="flowchart-Results-131" class="node default default flowchart-label"><rect height="33.66666793823242" width="148.7682342529297" y="-16.83333396911621" x="-74.38411712646484" ry="0" rx="0" style="" class="basic label-container"/><g transform="translate(0, -9.333333969116211)" style="" class="label"><rect/><text style=""><tspan class="row" x="0" dy="1em" xml:space="preserve">ComplianceResults</tspan></text></g></g><g transform="translate(233.50325393676758, 209.16666984558105)" id="flowchart-APIClient-132" class="node default default flowchart-label"><rect height="33.66666793823242" width="86.28646087646484" y="-16.83333396911621" x="-43.14323043823242" ry="0" rx="0" style="" class="basic label-container"/><g transform="translate(0, -9.333333969116211)" style="" class="label"><rect/><text style=""><tspan class="row" x="0" dy="1em" xml:space="preserve">API Client</tspan></text></g></g></g></g></g></svg>