<svg aria-roledescription="flowchart-v2" role="graphics-document document" viewBox="-8 -8 512.6799926757812 1837.951171875" style="max-width: 512.6799926757812px;" xmlns="http://www.w3.org/2000/svg" width="100%" id="mermaid-svg-1768188293332-pouhy2tyj"><style>#mermaid-svg-1768188293332-pouhy2tyj{font-family:"trebuchet ms",verdana,arial,sans-serif;font-size:16px;fill:rgba(228, 228, 228, 0.92);}#mermaid-svg-1768188293332-pouhy2tyj .error-icon{fill:#141414;}#mermaid-svg-1768188293332-pouhy2tyj .error-text{fill:#e34671;stroke:#e34671;}#mermaid-svg-1768188293332-pouhy2tyj .edge-thickness-normal{stroke-width:2px;}#mermaid-svg-1768188293332-pouhy2tyj .edge-thickness-thick{stroke-width:3.5px;}#mermaid-svg-1768188293332-pouhy2tyj .edge-pattern-solid{stroke-dasharray:0;}#mermaid-svg-1768188293332-pouhy2tyj .edge-pattern-dashed{stroke-dasharray:3;}#mermaid-svg-1768188293332-pouhy2tyj .edge-pattern-dotted{stroke-dasharray:2;}#mermaid-svg-1768188293332-pouhy2tyj .marker{fill:rgba(228, 228, 228, 0.65);stroke:rgba(228, 228, 228, 0.65);}#mermaid-svg-1768188293332-pouhy2tyj .marker.cross{stroke:rgba(228, 228, 228, 0.65);}#mermaid-svg-1768188293332-pouhy2tyj svg{font-family:"trebuchet ms",verdana,arial,sans-serif;font-size:16px;}#mermaid-svg-1768188293332-pouhy2tyj .label{font-family:"trebuchet ms",verdana,arial,sans-serif;color:rgba(228, 228, 228, 0.92);}#mermaid-svg-1768188293332-pouhy2tyj .cluster-label text{fill:rgba(228, 228, 228, 0.92);}#mermaid-svg-1768188293332-pouhy2tyj .cluster-label span,#mermaid-svg-1768188293332-pouhy2tyj p{color:rgba(228, 228, 228, 0.92);}#mermaid-svg-1768188293332-pouhy2tyj .label text,#mermaid-svg-1768188293332-pouhy2tyj span,#mermaid-svg-1768188293332-pouhy2tyj p{fill:rgba(228, 228, 228, 0.92);color:rgba(228, 228, 228, 0.92);}#mermaid-svg-1768188293332-pouhy2tyj .node rect,#mermaid-svg-1768188293332-pouhy2tyj .node circle,#mermaid-svg-1768188293332-pouhy2tyj .node ellipse,#mermaid-svg-1768188293332-pouhy2tyj .node polygon,#mermaid-svg-1768188293332-pouhy2tyj .node path{fill:#181818;stroke:#454545;stroke-width:1px;}#mermaid-svg-1768188293332-pouhy2tyj .flowchart-label text{text-anchor:middle;}#mermaid-svg-1768188293332-pouhy2tyj .node .label{text-align:center;}#mermaid-svg-1768188293332-pouhy2tyj .node.clickable{cursor:pointer;}#mermaid-svg-1768188293332-pouhy2tyj .arrowheadPath{fill:#e7e7e7;}#mermaid-svg-1768188293332-pouhy2tyj .edgePath .path{stroke:rgba(228, 228, 228, 0.65);stroke-width:2.0px;}#mermaid-svg-1768188293332-pouhy2tyj .flowchart-link{stroke:rgba(228, 228, 228, 0.65);fill:none;}#mermaid-svg-1768188293332-pouhy2tyj .edgeLabel{background-color:#18181899;text-align:center;}#mermaid-svg-1768188293332-pouhy2tyj .edgeLabel rect{opacity:0.5;background-color:#18181899;fill:#18181899;}#mermaid-svg-1768188293332-pouhy2tyj .labelBkg{background-color:rgba(24, 24, 24, 0.5);}#mermaid-svg-1768188293332-pouhy2tyj .cluster rect{fill:rgba(64, 64, 64, 0.47);stroke:#454545;stroke-width:1px;}#mermaid-svg-1768188293332-pouhy2tyj .cluster text{fill:rgba(228, 228, 228, 0.92);}#mermaid-svg-1768188293332-pouhy2tyj .cluster span,#mermaid-svg-1768188293332-pouhy2tyj p{color:rgba(228, 228, 228, 0.92);}#mermaid-svg-1768188293332-pouhy2tyj div.mermaidTooltip{position:absolute;text-align:center;max-width:200px;padding:2px;font-family:"trebuchet ms",verdana,arial,sans-serif;font-size:12px;background:rgba(64, 64, 64, 0.6);border:1px solid #454545;border-radius:2px;pointer-events:none;z-index:100;}#mermaid-svg-1768188293332-pouhy2tyj .flowchartTitleText{text-anchor:middle;font-size:18px;fill:rgba(228, 228, 228, 0.92);}#mermaid-svg-1768188293332-pouhy2tyj :root{--mermaid-font-family:"trebuchet ms",verdana,arial,sans-serif;}</style><g><marker orient="auto" markerHeight="12" markerWidth="12" markerUnits="userSpaceOnUse" refY="5" refX="6" viewBox="0 0 10 10" class="marker flowchart" id="mermaid-svg-1768188293332-pouhy2tyj_flowchart-pointEnd"><path style="stroke-width: 1; stroke-dasharray: 1, 0;" class="arrowMarkerPath" d="M 0 0 L 10 5 L 0 10 z"/></marker><marker orient="auto" markerHeight="12" markerWidth="12" markerUnits="userSpaceOnUse" refY="5" refX="4.5" viewBox="0 0 10 10" class="marker flowchart" id="mermaid-svg-1768188293332-pouhy2tyj_flowchart-pointStart"><path style="stroke-width: 1; stroke-dasharray: 1, 0;" class="arrowMarkerPath" d="M 0 5 L 10 10 L 10 0 z"/></marker><marker orient="auto" markerHeight="11" markerWidth="11" markerUnits="userSpaceOnUse" refY="5" refX="11" viewBox="0 0 10 10" class="marker flowchart" id="mermaid-svg-1768188293332-pouhy2tyj_flowchart-circleEnd"><circle style="stroke-width: 1; stroke-dasharray: 1, 0;" class="arrowMarkerPath" r="5" cy="5" cx="5"/></marker><marker orient="auto" markerHeight="11" markerWidth="11" markerUnits="userSpaceOnUse" refY="5" refX="-1" viewBox="0 0 10 10" class="marker flowchart" id="mermaid-svg-1768188293332-pouhy2tyj_flowchart-circleStart"><circle style="stroke-width: 1; stroke-dasharray: 1, 0;" class="arrowMarkerPath" r="5" cy="5" cx="5"/></marker><marker orient="auto" markerHeight="11" markerWidth="11" markerUnits="userSpaceOnUse" refY="5.2" refX="12" viewBox="0 0 11 11" class="marker cross flowchart" id="mermaid-svg-1768188293332-pouhy2tyj_flowchart-crossEnd"><path style="stroke-width: 2; stroke-dasharray: 1, 0;" class="arrowMarkerPath" d="M 1,1 l 9,9 M 10,1 l -9,9"/></marker><marker orient="auto" markerHeight="11" markerWidth="11" markerUnits="userSpaceOnUse" refY="5.2" refX="-1" viewBox="0 0 11 11" class="marker cross flowchart" id="mermaid-svg-1768188293332-pouhy2tyj_flowchart-crossStart"><path style="stroke-width: 2; stroke-dasharray: 1, 0;" class="arrowMarkerPath" d="M 1,1 l 9,9 M 10,1 l -9,9"/></marker><g class="root"><g class="clusters"/><g class="edgePaths"><path marker-end="url(#mermaid-svg-1768188293332-pouhy2tyj_flowchart-pointEnd)" style="fill:none;" class="edge-thickness-normal edge-pattern-solid flowchart-link LS-Start LE-Extract" id="L-Start-Extract-0" d="M384.25,33.667L384.25,37.833C384.25,42,384.25,50.333,384.25,57.783C384.25,65.233,384.25,71.8,384.25,75.083L384.25,78.367"/><path marker-end="url(#mermaid-svg-1768188293332-pouhy2tyj_flowchart-pointEnd)" style="fill:none;" class="edge-thickness-normal edge-pattern-solid flowchart-link LS-Extract LE-DocArt" id="L-Extract-DocArt-0" d="M384.25,117.333L384.25,121.5C384.25,125.667,384.25,134,384.25,141.45C384.25,148.9,384.25,155.467,384.25,158.75L384.25,162.033"/><path marker-end="url(#mermaid-svg-1768188293332-pouhy2tyj_flowchart-pointEnd)" style="fill:none;" class="edge-thickness-normal edge-pattern-solid flowchart-link LS-DocArt LE-Chunk" id="L-DocArt-Chunk-0" d="M384.25,217L384.25,221.167C384.25,225.333,384.25,233.667,384.25,241.117C384.25,248.567,384.25,255.133,384.25,258.417L384.25,261.7"/><path marker-end="url(#mermaid-svg-1768188293332-pouhy2tyj_flowchart-pointEnd)" style="fill:none;" class="edge-thickness-normal edge-pattern-solid flowchart-link LS-Chunk LE-Chunks" id="L-Chunk-Chunks-0" d="M384.25,316.667L384.25,320.833C384.25,325,384.25,333.333,384.25,340.783C384.25,348.233,384.25,354.8,384.25,358.083L384.25,361.367"/><path marker-end="url(#mermaid-svg-1768188293332-pouhy2tyj_flowchart-pointEnd)" style="fill:none;" class="edge-thickness-normal edge-pattern-solid flowchart-link LS-Chunks LE-Loop" id="L-Chunks-Loop-0" d="M384.25,454.501L384.25,458.668C384.25,462.835,384.25,471.168,384.316,478.701C384.382,486.235,384.514,492.969,384.58,496.335L384.646,499.702"/><path marker-end="url(#mermaid-svg-1768188293332-pouhy2tyj_flowchart-pointEnd)" style="fill:none;" class="edge-thickness-normal edge-pattern-solid flowchart-link LS-Loop LE-Retrieve" id="L-Loop-Retrieve-0" d="M331.377,614.076L303.281,628.611C275.185,643.145,218.992,672.214,190.896,695.045C162.799,717.876,162.799,734.469,162.799,742.765L162.799,751.062"/><path marker-end="url(#mermaid-svg-1768188293332-pouhy2tyj_flowchart-pointEnd)" style="fill:none;" class="edge-thickness-normal edge-pattern-solid flowchart-link LS-Retrieve LE-Evidence" id="L-Retrieve-Evidence-0" d="M162.799,806.028L162.799,813.653C162.799,821.277,162.799,836.525,162.799,847.433C162.799,858.341,162.799,864.907,162.799,868.191L162.799,871.474"/><path marker-end="url(#mermaid-svg-1768188293332-pouhy2tyj_flowchart-pointEnd)" style="fill:none;" class="edge-thickness-normal edge-pattern-solid flowchart-link LS-Evidence LE-Prompt" id="L-Evidence-Prompt-0" d="M162.799,926.441L162.799,930.607C162.799,934.774,162.799,943.107,162.799,950.557C162.799,958.007,162.799,964.574,162.799,967.857L162.799,971.141"/><path marker-end="url(#mermaid-svg-1768188293332-pouhy2tyj_flowchart-pointEnd)" style="fill:none;" class="edge-thickness-normal edge-pattern-solid flowchart-link LS-Prompt LE-LLM" id="L-Prompt-LLM-0" d="M162.799,1026.107L162.799,1030.274C162.799,1034.441,162.799,1042.774,162.799,1050.224C162.799,1057.674,162.799,1064.241,162.799,1067.524L162.799,1070.807"/><path marker-end="url(#mermaid-svg-1768188293332-pouhy2tyj_flowchart-pointEnd)" style="fill:none;" class="edge-thickness-normal edge-pattern-solid flowchart-link LS-LLM LE-Parse" id="L-LLM-Parse-0" d="M162.799,1125.774L162.799,1129.941C162.799,1134.107,162.799,1142.441,162.799,1149.891C162.799,1157.341,162.799,1163.907,162.799,1167.191L162.799,1170.474"/><path marker-end="url(#mermaid-svg-1768188293332-pouhy2tyj_flowchart-pointEnd)" style="fill:none;" class="edge-thickness-normal edge-pattern-solid flowchart-link LS-Parse LE-Validate" id="L-Parse-Validate-0" d="M162.799,1225.441L162.799,1229.607C162.799,1233.774,162.799,1242.107,162.799,1249.557C162.799,1257.007,162.799,1263.574,162.799,1266.857L162.799,1270.141"/><path marker-end="url(#mermaid-svg-1768188293332-pouhy2tyj_flowchart-pointEnd)" style="fill:none;" class="edge-thickness-normal edge-pattern-solid flowchart-link LS-Validate LE-Normalize" id="L-Validate-Normalize-0" d="M162.799,1309.107L162.799,1313.274C162.799,1317.441,162.799,1325.774,162.799,1333.224C162.799,1340.674,162.799,1347.241,162.799,1350.524L162.799,1353.807"/><path marker-end="url(#mermaid-svg-1768188293332-pouhy2tyj_flowchart-pointEnd)" style="fill:none;" class="edge-thickness-normal edge-pattern-solid flowchart-link LS-Normalize LE-Match" id="L-Normalize-Match-0" d="M162.799,1408.774L162.799,1412.941C162.799,1417.107,162.799,1425.441,162.865,1432.974C162.932,1440.508,163.064,1447.241,163.13,1450.608L163.196,1453.975"/><path marker-end="url(#mermaid-svg-1768188293332-pouhy2tyj_flowchart-pointEnd)" style="fill:none;" class="edge-thickness-normal edge-pattern-solid flowchart-link LS-Match LE-MapPages" id="L-Match-MapPages-0" d="M130.359,1571.511L120.961,1582.64C111.563,1593.769,92.766,1616.027,83.367,1631.994C73.969,1647.962,73.969,1657.64,73.969,1662.479L73.969,1667.318"/><path marker-end="url(#mermaid-svg-1768188293332-pouhy2tyj_flowchart-pointEnd)" style="fill:none;" class="edge-thickness-normal edge-pattern-solid flowchart-link LS-Match LE-Reject" id="L-Match-Reject-0" d="M202.072,1565.679L215.959,1577.78C229.846,1589.881,257.619,1614.083,271.506,1631.022C285.393,1647.962,285.393,1657.64,285.393,1662.479L285.393,1667.318"/><path marker-end="url(#mermaid-svg-1768188293332-pouhy2tyj_flowchart-pointEnd)" style="fill:none;" class="edge-thickness-normal edge-pattern-solid flowchart-link LS-MapPages LE-Result" id="L-MapPages-Result-0" d="M73.969,1722.284L73.969,1726.451C73.969,1730.618,73.969,1738.951,94.041,1747.849C114.112,1756.746,154.256,1766.208,174.328,1770.939L194.4,1775.67"/><path marker-end="url(#mermaid-svg-1768188293332-pouhy2tyj_flowchart-pointEnd)" style="fill:none;" class="edge-thickness-normal edge-pattern-solid flowchart-link LS-Reject LE-Result" id="L-Reject-Result-0" d="M285.393,1722.284L285.393,1726.451C285.393,1730.618,285.393,1738.951,285.393,1746.401C285.393,1753.851,285.393,1760.418,285.393,1763.701L285.393,1766.984"/><path marker-end="url(#mermaid-svg-1768188293332-pouhy2tyj_flowchart-pointEnd)" style="fill:none;" class="edge-thickness-normal edge-pattern-solid flowchart-link LS-Result LE-Loop" id="L-Result-Loop-0" d="M371.228,1776.873L392.137,1771.942C413.045,1767.01,454.862,1757.147,475.771,1743.91C496.68,1730.673,496.68,1714.062,496.68,1695.896C496.68,1677.729,496.68,1658.007,496.68,1630.325C496.68,1602.644,496.68,1567.003,496.68,1532.918C496.68,1498.833,496.68,1466.304,496.68,1441.733C496.68,1417.163,496.68,1400.552,496.68,1383.941C496.68,1367.33,496.68,1350.718,496.68,1335.441C496.68,1320.163,496.68,1306.218,496.68,1292.274C496.68,1278.33,496.68,1264.385,496.68,1249.107C496.68,1233.83,496.68,1217.218,496.68,1200.607C496.68,1183.996,496.68,1167.385,496.68,1150.774C496.68,1134.163,496.68,1117.552,496.68,1100.941C496.68,1084.33,496.68,1067.718,496.68,1051.107C496.68,1034.496,496.68,1017.885,496.68,1001.274C496.68,984.663,496.68,968.052,496.68,951.441C496.68,934.83,496.68,918.218,496.68,901.607C496.68,884.996,496.68,868.385,496.68,848.316C496.68,828.248,496.68,804.721,496.68,779.639C496.68,754.557,496.68,727.92,485.316,702.92C473.953,677.92,451.227,654.556,439.864,642.875L428.5,631.193"/><path marker-end="url(#mermaid-svg-1768188293332-pouhy2tyj_flowchart-pointEnd)" style="fill:none;" class="edge-thickness-normal edge-pattern-solid flowchart-link LS-Loop LE-Store" id="L-Loop-Store-0" d="M384.75,667.449L384.667,673.088C384.583,678.727,384.417,690.005,384.333,700.483C384.25,710.96,384.25,720.638,384.25,725.477L384.25,730.316"/><path marker-end="url(#mermaid-svg-1768188293332-pouhy2tyj_flowchart-pointEnd)" style="fill:none;" class="edge-thickness-normal edge-pattern-solid flowchart-link LS-Store LE-End" id="L-Store-End-0" d="M384.25,826.774L384.25,830.941C384.25,835.107,384.25,843.441,384.25,852.224C384.25,861.007,384.25,870.241,384.25,874.857L384.25,879.474"/></g><g class="edgeLabels"><g class="edgeLabel"><g transform="translate(0, 0)" class="label"><rect height="0" width="0" ry="0" rx="0"/><text style=""><tspan class="row" x="0" dy="1em" xml:space="preserve"/></text></g></g><g class="edgeLabel"><g transform="translate(0, 0)" class="label"><rect height="0" width="0" ry="0" rx="0"/><text style=""><tspan class="row" x="0" dy="1em" xml:space="preserve"/></text></g></g><g class="edgeLabel"><g transform="translate(0, 0)" class="label"><rect height="0" width="0" ry="0" rx="0"/><text style=""><tspan class="row" x="0" dy="1em" xml:space="preserve"/></text></g></g><g class="edgeLabel"><g transform="translate(0, 0)" class="label"><rect height="0" width="0" ry="0" rx="0"/><text style=""><tspan class="row" x="0" dy="1em" xml:space="preserve"/></text></g></g><g class="edgeLabel"><g transform="translate(0, 0)" class="label"><rect height="0" width="0" ry="0" rx="0"/><text style=""><tspan class="row" x="0" dy="1em" xml:space="preserve"/></text></g></g><g transform="translate(162.7994785308838, 701.2825603485107)" class="edgeLabel"><g transform="translate(-45.234375, -9.333333969116211)" class="label"><rect height="18.66691017150879" width="90.43868255615234" ry="0" rx="0"/><text style=""><tspan class="row" x="0" dy="1em" xml:space="preserve">Question 1-5</tspan></text></g></g><g class="edgeLabel"><g transform="translate(0, 0)" class="label"><rect height="0" width="0" ry="0" rx="0"/><text style=""><tspan class="row" x="0" dy="1em" xml:space="preserve"/></text></g></g><g class="edgeLabel"><g transform="translate(0, 0)" class="label"><rect height="0" width="0" ry="0" rx="0"/><text style=""><tspan class="row" x="0" dy="1em" xml:space="preserve"/></text></g></g><g class="edgeLabel"><g transform="translate(0, 0)" class="label"><rect height="0" width="0" ry="0" rx="0"/><text style=""><tspan class="row" x="0" dy="1em" xml:space="preserve"/></text></g></g><g class="edgeLabel"><g transform="translate(0, 0)" class="label"><rect height="0" width="0" ry="0" rx="0"/><text style=""><tspan class="row" x="0" dy="1em" xml:space="preserve"/></text></g></g><g class="edgeLabel"><g transform="translate(0, 0)" class="label"><rect height="0" width="0" ry="0" rx="0"/><text style=""><tspan class="row" x="0" dy="1em" xml:space="preserve"/></text></g></g><g class="edgeLabel"><g transform="translate(0, 0)" class="label"><rect height="0" width="0" ry="0" rx="0"/><text style=""><tspan class="row" x="0" dy="1em" xml:space="preserve"/></text></g></g><g class="edgeLabel"><g transform="translate(0, 0)" class="label"><rect height="0" width="0" ry="0" rx="0"/><text style=""><tspan class="row" x="0" dy="1em" xml:space="preserve"/></text></g></g><g transform="translate(73.96875, 1638.2844791412354)" class="edgeLabel"><g transform="translate(-11.752604484558105, -9.333333969116211)" class="label"><rect height="18.66691017150879" width="23.49877166748047" ry="0" rx="0"/><text style=""><tspan class="row" x="0" dy="1em" xml:space="preserve">Yes</tspan></text></g></g><g transform="translate(285.3932304382324, 1638.2844791412354)" class="edgeLabel"><g transform="translate(-9.438802719116211, -9.333333969116211)" class="label"><rect height="18.66691017150879" width="18.87358856201172" ry="0" rx="0"/><text style=""><tspan class="row" x="0" dy="1em" xml:space="preserve">No</tspan></text></g></g><g class="edgeLabel"><g transform="translate(0, 0)" class="label"><rect height="0" width="0" ry="0" rx="0"/><text style=""><tspan class="row" x="0" dy="1em" xml:space="preserve"/></text></g></g><g class="edgeLabel"><g transform="translate(0, 0)" class="label"><rect height="0" width="0" ry="0" rx="0"/><text style=""><tspan class="row" x="0" dy="1em" xml:space="preserve"/></text></g></g><g class="edgeLabel"><g transform="translate(0, 0)" class="label"><rect height="0" width="0" ry="0" rx="0"/><text style=""><tspan class="row" x="0" dy="1em" xml:space="preserve"/></text></g></g><g transform="translate(384.25000190734863, 701.2825603485107)" class="edgeLabel"><g transform="translate(-29.666667938232422, -9.333333969116211)" class="label"><rect height="18.66691017150879" width="59.31327438354492" ry="0" rx="0"/><text style=""><tspan class="row" x="0" dy="1em" xml:space="preserve">All done</tspan></text></g></g><g class="edgeLabel"><g transform="translate(0, 0)" class="label"><rect height="0" width="0" ry="0" rx="0"/><text style=""><tspan class="row" x="0" dy="1em" xml:space="preserve"/></text></g></g></g><g class="nodes"><g transform="translate(384.25000190734863, 16.83333396911621)" id="flowchart-Start-208" class="node default default flowchart-label"><rect height="33.66666793823242" width="105.5520887374878" y="-16.83333396911621" x="-52.7760443687439" ry="16.83333396911621" rx="16.83333396911621" style=""/><g transform="translate(0, -9.333333969116211)" style="" class="label"><rect/><text style=""><tspan class="row" x="0" dy="1em" xml:space="preserve">Upload PDF</tspan></text></g></g><g transform="translate(384.25000190734863, 100.50000190734863)" id="flowchart-Extract-209" class="node default default flowchart-label"><rect height="33.66666793823242" width="114.02604675292969" y="-16.83333396911621" x="-57.013023376464844" ry="0" rx="0" style="" class="basic label-container"/><g transform="translate(0, -9.333333969116211)" style="" class="label"><rect/><text style=""><tspan class="row" x="0" dy="1em" xml:space="preserve">PDF Extractor</tspan></text></g></g><g transform="translate(384.25000190734863, 192.16666984558105)" id="flowchart-DocArt-211" class="node default default flowchart-label"><rect height="49.66666793823242" width="195.4401092529297" y="-24.83333396911621" x="-97.72005462646484" ry="0" rx="0" style="fill:#fce4ec;" class="basic label-container"/><g transform="translate(0, -17.33333396911621)" style="" class="label"><rect/><text style=""><tspan class="row" x="0" dy="1em" xml:space="preserve">Create DocumentArtifact</tspan><tspan class="row" x="0" dy="1em" xml:space="preserve">with PageArtifacts</tspan></text></g></g><g transform="translate(384.25000190734863, 291.8333377838135)" id="flowchart-Chunk-213" class="node default default flowchart-label"><rect height="49.66666793823242" width="181.45834350585938" y="-24.83333396911621" x="-90.72917175292969" ry="0" rx="0" style="" class="basic label-container"/><g transform="translate(0, -17.33333396911621)" style="" class="label"><rect/><text style=""><tspan class="row" x="0" dy="1em" xml:space="preserve">Chunking Service</tspan><tspan class="row" x="0" dy="1em" xml:space="preserve">Fixed-size with overlap</tspan></text></g></g><g transform="translate(384.25000190734863, 410.58398818969727)" id="flowchart-Chunks-215" class="node default default flowchart-label"><path transform="translate(-64.76692962646484,-43.917316494042126)" d="M 0,12.722655016617278 a 64.76692962646484,12.722655016617278 0,0,0 129.5338592529297 0 a 64.76692962646484,12.722655016617278 0,0,0 -129.5338592529297 0 l 0,62.3893229548497 a 64.76692962646484,12.722655016617278 0,0,0 129.5338592529297 0 l 0,-62.3893229548497" style=""/><g transform="translate(0, -17.33333396911621)" style="" class="label"><rect/><text style=""><tspan class="row" x="0" dy="1em" xml:space="preserve">EvidenceChunks</tspan><tspan class="row" x="0" dy="1em" xml:space="preserve">with page refs</tspan></text></g></g><g transform="translate(384.25000190734863, 585.7252655029297)" id="flowchart-Loop-217" class="node default default flowchart-label"><polygon style="" transform="translate(-81.22395896911621,81.22395896911621)" class="label-container" points="81.22395896911621,0 162.44791793823242,-81.22395896911621 81.22395896911621,-162.44791793823242 0,-81.22395896911621"/><g transform="translate(0, -25.33333396911621)" style="" class="label"><rect/><text style=""><tspan class="row" x="0" dy="1em" xml:space="preserve">For each</tspan><tspan class="row" x="0" dy="1em" xml:space="preserve">compliance</tspan><tspan class="row" x="0" dy="1em" xml:space="preserve">question</tspan></text></g></g><g transform="translate(162.7994785308838, 781.1949691772461)" id="flowchart-Retrieve-219" class="node default default flowchart-label"><rect height="49.66666793823242" width="188.0416717529297" y="-24.83333396911621" x="-94.02083587646484" ry="0" rx="0" style="" class="basic label-container"/><g transform="translate(0, -17.33333396911621)" style="" class="label"><rect/><text style=""><tspan class="row" x="0" dy="1em" xml:space="preserve">Retrieve Top-K Evidence</tspan><tspan class="row" x="0" dy="1em" xml:space="preserve">BM25/TF-IDF</tspan></text></g></g><g transform="translate(162.7994785308838, 901.6073780059814)" id="flowchart-Evidence-221" class="node default default flowchart-label"><rect height="49.66666793823242" width="174.08334350585938" y="-24.83333396911621" x="-87.04167175292969" ry="0" rx="0" style="fill:#e8f5e9;" class="basic label-container"/><g transform="translate(0, -17.33333396911621)" style="" class="label"><rect/><text style=""><tspan class="row" x="0" dy="1em" xml:space="preserve">Top-5 EvidenceChunks</tspan><tspan class="row" x="0" dy="1em" xml:space="preserve">~2000 tokens max</tspan></text></g></g><g transform="translate(162.7994785308838, 1001.2740459442139)" id="flowchart-Prompt-223" class="node default default flowchart-label"><rect height="49.66666793823242" width="201.20053100585938" y="-24.83333396911621" x="-100.60026550292969" ry="0" rx="0" style="" class="basic label-container"/><g transform="translate(0, -17.33333396911621)" style="" class="label"><rect/><text style=""><tspan class="row" x="0" dy="1em" xml:space="preserve">Build Prompt</tspan><tspan class="row" x="0" dy="1em" xml:space="preserve">Question + Evidence ONLY</tspan></text></g></g><g transform="translate(162.7994785308838, 1100.9407138824463)" id="flowchart-LLM-225" class="node default default flowchart-label"><rect height="49.66666793823242" width="145.8776092529297" y="-24.83333396911621" x="-72.93880462646484" ry="0" rx="0" style="" class="basic label-container"/><g transform="translate(0, -17.33333396911621)" style="" class="label"><rect/><text style=""><tspan class="row" x="0" dy="1em" xml:space="preserve">LLM Generate</tspan><tspan class="row" x="0" dy="1em" xml:space="preserve">Structured Output</tspan></text></g></g><g transform="translate(162.7994785308838, 1200.6073818206787)" id="flowchart-Parse-227" class="node default default flowchart-label"><rect height="49.66666793823242" width="185.2447967529297" y="-24.83333396911621" x="-92.62239837646484" ry="0" rx="0" style="" class="basic label-container"/><g transform="translate(0, -17.33333396911621)" style="" class="label"><rect/><text style=""><tspan class="row" x="0" dy="1em" xml:space="preserve">Parse ComplianceResult</tspan><tspan class="row" x="0" dy="1em" xml:space="preserve">with quotes</tspan></text></g></g><g transform="translate(162.7994785308838, 1292.2740497589111)" id="flowchart-Validate-229" class="node default default flowchart-label"><rect height="33.66666793823242" width="127.77604675292969" y="-16.83333396911621" x="-63.888023376464844" ry="0" rx="0" style="" class="basic label-container"/><g transform="translate(0, -9.333333969116211)" style="" class="label"><rect/><text style=""><tspan class="row" x="0" dy="1em" xml:space="preserve">Quote Validator</tspan></text></g></g><g transform="translate(162.7994785308838, 1383.9407176971436)" id="flowchart-Normalize-231" class="node default default flowchart-label"><rect height="49.66666793823242" width="133.4375" y="-24.83333396911621" x="-66.71875" ry="0" rx="0" style="" class="basic label-container"/><g transform="translate(0, -17.33333396911621)" style="" class="label"><rect/><text style=""><tspan class="row" x="0" dy="1em" xml:space="preserve">Normalize quote</tspan><tspan class="row" x="0" dy="1em" xml:space="preserve">and source text</tspan></text></g></g><g transform="translate(162.7994785308838, 1531.3625984191895)" id="flowchart-Match-233" class="node default default flowchart-label"><polygon style="" transform="translate(-72.58854484558105,72.58854484558105)" class="label-container" points="72.58854484558105,0 145.1770896911621,-72.58854484558105 72.58854484558105,-145.1770896911621 0,-72.58854484558105"/><g transform="translate(0, -25.33333396911621)" style="" class="label"><rect/><text style=""><tspan class="row" x="0" dy="1em" xml:space="preserve">Exact</tspan><tspan class="row" x="0" dy="1em" xml:space="preserve">substring</tspan><tspan class="row" x="0" dy="1em" xml:space="preserve">match?</tspan></text></g></g><g transform="translate(73.96875, 1697.4511470794678)" id="flowchart-MapPages-235" class="node default default flowchart-label"><rect height="49.66666793823242" width="147.9375" y="-24.83333396911621" x="-73.96875" ry="0" rx="0" style="" class="basic label-container"/><g transform="translate(0, -17.33333396911621)" style="" class="label"><rect/><text style=""><tspan class="row" x="0" dy="1em" xml:space="preserve">Map to page range</tspan><tspan class="row" x="0" dy="1em" xml:space="preserve">via char_offsets</tspan></text></g></g><g transform="translate(285.3932304382324, 1697.4511470794678)" id="flowchart-Reject-237" class="node default default flowchart-label"><rect height="49.66666793823242" width="107.38542175292969" y="-24.83333396911621" x="-53.692710876464844" ry="0" rx="0" style="" class="basic label-container"/><g transform="translate(0, -17.33333396911621)" style="" class="label"><rect/><text style=""><tspan class="row" x="0" dy="1em" xml:space="preserve">Reject quote</tspan><tspan class="row" x="0" dy="1em" xml:space="preserve">log warning</tspan></text></g></g><g transform="translate(285.3932304382324, 1797.1178150177002)" id="flowchart-Result-239" class="node default default flowchart-label"><rect height="49.66666793823242" width="171.66928100585938" y="-24.83333396911621" x="-85.83464050292969" ry="0" rx="0" style="fill:#fff3e0;" class="basic label-container"/><g transform="translate(0, -17.33333396911621)" style="" class="label"><rect/><text style=""><tspan class="row" x="0" dy="1em" xml:space="preserve">ComplianceResult</tspan><tspan class="row" x="0" dy="1em" xml:space="preserve">with validated quotes</tspan></text></g></g><g transform="translate(384.25000190734863, 781.1949691772461)" id="flowchart-Store-245" class="node default default flowchart-label"><path transform="translate(-77.4296875,-45.5838504115259)" d="M 0,13.833677628273128 a 77.4296875,13.833677628273128 0,0,0 154.859375 0 a 77.4296875,13.833677628273128 0,0,0 -154.859375 0 l 0,63.50034556650555 a 77.4296875,13.833677628273128 0,0,0 154.859375 0 l 0,-63.50034556650555" style=""/><g transform="translate(0, -17.33333396911621)" style="" class="label"><rect/><text style=""><tspan class="row" x="0" dy="1em" xml:space="preserve">Store Results</tspan><tspan class="row" x="0" dy="1em" xml:space="preserve">Status: COMPLETED</tspan></text></g></g><g transform="translate(384.25000190734863, 901.6073780059814)" id="flowchart-End-247" class="node default default flowchart-label"><rect height="33.66666793823242" width="127.6692762374878" y="-16.83333396911621" x="-63.8346381187439" ry="16.83333396911621" rx="16.83333396911621" style=""/><g transform="translate(0, -9.333333969116211)" style="" class="label"><rect/><text style=""><tspan class="row" x="0" dy="1em" xml:space="preserve">Return to User</tspan></text></g></g></g></g></g></svg>